<svg width="192" height="192" viewBox="0 0 192 192" fill="none" xmlns="http://www.w3.org/2000/svg">
<rect width="192" height="192" rx="24" fill="#667eea"/>
<path d="M96 48C79.4315 48 66 61.4315 66 78V114C66 130.569 79.4315 144 96 144C112.569 144 126 130.569 126 114V78C126 61.4315 112.569 48 96 48Z" fill="white"/>
<path d="M96 66C88.268 66 82 72.268 82 80V112C82 119.732 88.268 126 96 126C103.732 126 110 119.732 110 112V80C110 72.268 103.732 66 96 66Z" fill="#667eea"/>
<circle cx="96" cy="96" r="8" fill="white"/>
</svg>
